<?xml version="1.0" encoding="UTF-8"?>
<svg version="1.1" xmlns="http://www.w3.org/2000/svg" width="400" height="225">
<path d="M0 0 C132 0 264 0 400 0 C400 74.25 400 148.5 400 225 C268 225 136 225 0 225 C0 150.75 0 76.5 0 0 Z " fill="#000000" transform="translate(0,0)"/>
<path d="M0 0 C1.81854688 0.17481662 3.63567505 0.38567146 5.4375 0.6875 C5.4375 1.3475 5.4375 2.0075 5.4375 2.6875 C4.7775 2.6875 4.1175 2.6875 3.4375 2.6875 C3.19128906 3.25339844 2.94507813 3.81929687 2.69140625 4.40234375 C1.22213776 7.07998258 -0.54002435 9.01793612 -2.625 11.25 C-5.89268473 14.81046928 -9.02729193 18.4268292 -12.0625 22.1875 C-14.9706338 25.7822765 -17.94791332 29.27010628 -21.0625 32.6875 C-25.01181196 37.02211069 -28.73407794 41.50339895 -32.40625 46.07421875 C-34.95202132 49.1595829 -37.6579946 52.06575333 -40.4453125 54.93359375 C-41.78971085 56.61676822 -41.78971085 56.61676822 -41.26025391 58.59570312 C-40.11283043 62.0355647 -37.89438069 64.81866592 -35.8125 67.75 C-34.80687455 69.18851058 -33.80168444 70.62732556 -32.796875 72.06640625 C-32.26771484 72.82066895 -31.73855469 73.57493164 -31.19335938 74.35205078 C-28.45286905 78.27653139 -25.75995512 82.23337652 -23.0625 86.1875 C-19.54789844 91.32906019 -16.02906172 96.46761274 -12.49731445 101.59741211 C-10.18308654 104.95897373 -7.87270793 108.32317495 -5.5625 111.6875 C-4.9236084 112.61723633 -4.2847168 113.54697266 -3.62646484 114.50488281 C-1.54012511 117.54320368 0.54276717 120.58386347 2.625 123.625 C3.29772949 124.60380127 3.97045898 125.58260254 4.66357422 126.59106445 C5.28377441 127.49816162 5.90397461 128.40525879 6.54296875 129.33984375 C7.38057739 130.56175415 7.38057739 130.56175415 8.23510742 131.80834961 C9.4375 133.6875 9.4375 133.6875 9.4375 134.6875 C-23.67777342 137.81748804 -23.67777342 137.81748804 -32.52587891 133.11132812 C-37.11297598 128.83537733 -39.56611284 123.43051451 -42.07666016 117.76513672 C-44.83574905 112.05020498 -48.59467246 106.96432681 -52.1875 101.75 C-54.08426473 98.88375769 -55.97339266 96.01260931 -57.86181641 93.14086914 C-59.5771274 90.59470326 -59.5771274 90.59470326 -61.77490234 87.99780273 C-63.5625 85.6875 -63.5625 85.6875 -63.5625 83.6875 C-68.61859333 87.44715914 -72.28257416 91.88246717 -76.20703125 96.79296875 C-78.41592002 99.50737435 -80.70213081 102.10468764 -83.0625 104.6875 C-86.97333183 108.97855159 -90.63960582 113.42760456 -94.2890625 117.94140625 C-97.28764698 121.56340778 -100.43542075 125.03492454 -103.6171875 128.49609375 C-105.60334116 130.59997498 -105.60334116 130.59997498 -106.93359375 132.95703125 C-108.5625 134.6875 -108.5625 134.6875 -111.48046875 135.078125 C-112.55941406 135.03171875 -113.63835937 134.9853125 -114.75 134.9375 C-115.83667969 134.90140625 -116.92335937 134.8653125 -118.04296875 134.828125 C-118.87441406 134.78171875 -119.70585937 134.7353125 -120.5625 134.6875 C-116.49026449 128.91022279 -111.93010855 123.73787214 -107.140625 118.546875 C-103.87917203 114.92962716 -100.83545542 111.16014248 -97.77734375 107.37109375 C-95.60617173 104.74041443 -93.36008643 102.20807576 -91.0625 99.6875 C-87.09294687 95.32999753 -83.34450015 90.82848174 -79.65234375 86.234375 C-77.81494087 83.99514757 -75.90356835 81.87498842 -73.9375 79.75 C-71.34922993 77.09779754 -71.34922993 77.09779754 -71.6484375 74.90625 C-72.96586981 71.70838013 -74.86260614 68.96103857 -76.8125 66.125 C-77.25215088 65.47587646 -77.69180176 64.82675293 -78.14477539 64.15795898 C-79.6112069 61.99688863 -81.08648764 59.84203604 -82.5625 57.6875 C-83.61873117 56.13818551 -84.67471581 54.58870292 -85.73046875 53.0390625 C-90.38074488 46.22233932 -95.05529416 39.42227973 -99.73144531 32.62329102 C-100.61277383 31.34154967 -101.4936398 30.05949014 -102.37402344 28.77709961 C-104.95136339 25.02390731 -107.53972018 21.27868514 -110.13671875 17.5390625 C-111.34122164 15.79692741 -112.54564988 14.0547407 -113.75 12.3125 C-114.3275 11.48492187 -114.905 10.65734375 -115.5 9.8046875 C-116.02980469 9.03640625 -116.55960938 8.268125 -117.10546875 7.4765625 C-117.8173938 6.45103271 -117.8173938 6.45103271 -118.54370117 5.40478516 C-119.5625 3.6875 -119.5625 3.6875 -119.5625 1.6875 C-114.35292383 1.31327641 -109.15131339 1.04315913 -103.93139648 0.86352539 C-102.16210672 0.78861692 -100.39372951 0.68662275 -98.62768555 0.5559082 C-84.49091096 -0.4632825 -84.49091096 -0.4632825 -79.76486206 3.00778198 C-76.40662791 6.47767673 -74.01093493 10.48472324 -71.68478394 14.69216919 C-70.03094752 17.63255767 -68.11827579 20.34648187 -66.19921875 23.12109375 C-64.87911579 25.11995933 -63.56263751 27.12122401 -62.25 29.125 C-57.86895878 35.79661476 -53.45656277 42.37875617 -48.5625 48.6875 C-43.50640667 44.92784086 -39.84242584 40.49253283 -35.91796875 35.58203125 C-33.70907998 32.86762565 -31.42286919 30.27031236 -29.0625 27.6875 C-25.96336842 24.28168352 -22.97605252 20.81606689 -20.0625 17.25 C-19.31613281 16.34765625 -18.56976563 15.4453125 -17.80078125 14.515625 C-16.26893947 12.58010415 -14.80990022 10.58533202 -13.41796875 8.546875 C-9.40872703 2.91226502 -7.20654402 0 0 0 Z " fill="#F5F5F5" transform="translate(252.5625,44.3125)"/>
<path d="M0 0 C14.84150898 -1.35226347 14.84150898 -1.35226347 19.30078125 1.44140625 C21.14211703 3.84930689 22.5443468 6.34002941 24 9 C25.16173834 10.75128506 26.36681132 12.46764336 27.57592773 14.18652344 C28.99951738 16.21329442 30.39607991 18.2567726 31.7890625 20.3046875 C35.43103753 25.64242124 39.12039042 30.9468683 42.8125 36.25 C43.49481689 37.23025146 44.17713379 38.21050293 44.88012695 39.22045898 C50.99931714 48.00682186 57.13745323 56.77985696 63.28222656 65.54833984 C66.18962091 69.6978643 69.09465314 73.84904185 72 78 C72.57113525 78.81581543 73.14227051 79.63163086 73.73071289 80.47216797 C76.76033724 84.79971529 79.78902494 89.12791444 82.81640625 93.45703125 C83.44353516 94.35357422 84.07066406 95.25011719 84.71679688 96.17382812 C85.90978609 97.87936085 87.10251268 99.58507733 88.29492188 101.29101562 C88.83826172 102.06767578 89.38160156 102.84433594 89.94140625 103.64453125 C90.45590332 104.3813916 90.97040039 105.11825195 91.50048828 105.87744141 C92.49107452 107.27961606 93.49450495 108.67281433 94.51123047 110.05615234 C98 114.80376887 98 114.80376887 98 117 C83.36279162 118.81494662 83.36279162 118.81494662 78.25390625 114.890625 C76.34268269 112.29556915 74.65236427 109.67225648 73.07763672 106.86083984 C71.15450859 103.54002368 68.8898304 100.45179521 66.6875 97.3125 C65.74567946 95.93606869 64.80559716 94.5584465 63.8671875 93.1796875 C61.05728455 89.06908067 58.19205173 84.99950904 55.3125 80.9375 C49.8521833 73.22892327 44.45344122 65.47851577 39.0637207 57.72045898 C34.16280677 50.6673565 29.24373511 43.62726539 24.3137207 36.59448242 C18.93380051 28.91558246 13.58315492 21.21640153 8.24023438 13.51171875 C7.60021484 12.59003906 6.96019531 11.66835937 6.30078125 10.71875 C5.73528564 9.90341797 5.16979004 9.08808594 4.5871582 8.24804688 C3.52775822 6.74751541 2.42909026 5.27396684 1.29370117 3.83007812 C0 2 0 2 0 0 Z " fill="#060606" transform="translate(148,54)"/>
<path d="M0 0 C0.33 1.32 0.66 2.64 1 4 C-1.97 6.475 -1.97 6.475 -5 9 C-5.66 8.67 -6.32 8.34 -7 8 C-4.69 5.36 -2.38 2.72 0 0 Z " fill="#1B1B1B" transform="translate(153,167)"/>
</svg>
